<?xml version="1.0" encoding="UTF-8" standalone="no"?>
<!-- Created with Inkscape (http://www.inkscape.org/) -->

<svg
   xmlns:dc="http://purl.org/dc/elements/1.1/"
   xmlns:cc="http://creativecommons.org/ns#"
   xmlns:rdf="http://www.w3.org/1999/02/22-rdf-syntax-ns#"
   xmlns:svg="http://www.w3.org/2000/svg"
   xmlns="http://www.w3.org/2000/svg"
   xmlns:sodipodi="http://sodipodi.sourceforge.net/DTD/sodipodi-0.dtd"
   xmlns:inkscape="http://www.inkscape.org/namespaces/inkscape"
   width="210mm"
   height="297mm"
   viewBox="0 0 744.09448819 1052.3622047"
   id="svg2"
   version="1.1"
   inkscape:version="0.91 r13725"
   sodipodi:docname="cloud.svg">
  <defs
     id="defs4" />
  <sodipodi:namedview
     id="base"
     pagecolor="#ffffff"
     bordercolor="#666666"
     borderopacity="1.0"
     inkscape:pageopacity="0.0"
     inkscape:pageshadow="2"
     inkscape:zoom="1.979899"
     inkscape:cx="216.67717"
     inkscape:cy="625.48527"
     inkscape:document-units="px"
     inkscape:current-layer="layer1"
     showgrid="false"
     inkscape:window-width="1920"
     inkscape:window-height="1016"
     inkscape:window-x="0"
     inkscape:window-y="27"
     inkscape:window-maximized="1" />
  <metadata
     id="metadata7">
    <rdf:RDF>
      <cc:Work
         rdf:about="">
        <dc:format>image/svg+xml</dc:format>
        <dc:type
           rdf:resource="http://purl.org/dc/dcmitype/StillImage" />
        <dc:title></dc:title>
      </cc:Work>
    </rdf:RDF>
  </metadata>
  <g
     inkscape:label="Layer 1"
     inkscape:groupmode="layer"
     id="layer1">
    <g
       id="g3347"
       transform="translate(145,96.428572)">
      <path
         style="fill:#949293"
         d="m 79.354008,421.34183 c -2.8323,-0.82057 -6.81239,-4.06078 -10.03168,-8.16684 -0.97334,-1.24145 -1.89535,-1.31052 -5.31395,-0.39804 -5.92822,1.58233 -10.74283,-1.12247 -13.38573,-7.51998 -1.9318,-4.67618 -1.93177,-4.67722 0.24495,-9.73716 2.59986,-6.04353 2.10261,-9.09199 -2.05346,-12.5891 -5.72388,-4.81632 -14.8243,-2.28021 -16.3243,4.54928 -0.49067,2.234 0.0108,4.31196 1.92322,7.9694 3.18691,6.09485 3.28257,10.64723 0.31702,15.08639 -3.60142,5.39098 -7.90169,7.08859 -16.80686,6.63479 -6.75491,-0.34423 -8.4995296,-0.8891 -16.0833596,-5.02305 -10.32884,-5.63025 -14.6866904,-6.48172 -22.1176004,-4.32149 -3.04153,0.88419 -5.7983,1.60763 -6.12616,1.60763 -1.72669,0 -0.14245,-3.39266 3.24907,-6.95789 l 3.84517,-4.04211 9.9048304,-0.0147 c 13.8157,-0.0206 17.85235,-2.63738 14.89993,-9.6591 -1.05339,-2.50528 -2.58735,-3.56869 -8.29267,-5.74881 -5.70415,-2.17968 -7.2343904,-3.24031 -8.2651104,-5.7287 -0.98558,-2.3794 -1.00581,-3.77032 -0.0916,-6.29852 0.94457,-2.61215 0.87902,-4.07887 -0.3362,-7.52316 -0.83023,-2.35317 -1.50951,-5.42981 -1.50951,-6.83701 0,-4.10444 3.6773304,-10.49165 7.5496304,-13.11307 4.21156,-2.8511 12.97089,-3.93239 17.3067296,-2.13643 2.5268,1.04664 3.31414,0.88352 6.6446,-1.37659 10.42129,-7.07208 24.49904,0.93185 24.49904,13.92899 0,5.67912 -1.25171,7.51171 -6.49142,9.50384 -4.14191,1.57475 -9.18834,0.42164 -11.13116,-2.54347 -1.48227,-2.26223 -1.47576,-2.65424 0.0836,-5.03406 1.98234,-3.0255 1.39814,-5.41921 -1.32265,-5.41921 -2.23709,0 -3.13837,1.85143 -3.13837,6.44693 0,10.02184 15.36291,13.85265 22.33324,5.56889 3.92569,-4.66542 4.3204,-9.90834 1.25072,-16.61338 -1.42118,-3.10427 -2.58396,-6.17647 -2.58396,-6.82712 0,-1.88994 6.16337,-7.33355 10.21788,-9.02464 7.7233,-3.22129 19.82009,-0.58615 25.34759,5.52167 1.63538,1.80707 1.68812,2.37623 0.4844,5.22775 -5.01748,11.88597 0.42215,27.72449 11.99187,34.91663 4.66853,2.90211 5.59643,4.78327 2.3594,4.78327 -2.55152,0 -9.12089,3.82826 -11.28033,6.57355 -4.68236,5.95266 -3.52464,12.88013 2.87919,17.22824 4.83333,3.28176 12.31518,2.69568 15.69116,-1.22913 3.095312,-3.59851 3.153932,-9.70743 0.12028,-12.5337 -2.49671,-2.32604 -3.1864,-2.44384 -5.87718,-1.00378 -2.73749,1.46506 -2.39806,3.62892 0.81574,5.20024 4.78033,2.33725 1.99376,7.76458 -3.98658,7.76458 -6.57236,0 -10.23628,-8.96858 -5.66739,-13.8727 2.74384,-2.94517 6.02786,-4.1273 11.46587,-4.1273 3.990622,0 4.904782,0.48691 9.184902,4.89216 3.94932,4.06478 5.72567,5.10644 10.5032,6.15913 5.49261,1.21026 5.74926,1.40533 5.73355,4.35784 -0.0407,7.65327 -8.59448,15.59087 -16.80108,15.59087 -2.14692,0 -4.46853,0.90436 -6.319172,2.46157 -4.89876,4.12204 -12.52662,5.46961 -19.5093,3.4466 z m -24.9671,-50.72766 c 4.69241,-2.73152 6.79223,-7.65342 6.37509,-14.94298 -0.25147,-4.39439 -0.89943,-6.78078 -2.1722,-8 -1.74328,-1.66994 -1.78917,-1.56249 -1.1797,2.76247 1.02524,7.27531 -1.54083,14.07883 -7.18104,19.03943 -4.53882,3.9919 -4.60837,4.13231 -1.72905,3.4904 1.65,-0.36784 4.29911,-1.42504 5.8869,-2.34932 z m 98.928102,26.87552 c -2.30175,-1.04502 -5.47128,-2.85103 -7.04339,-4.01334 -2.69626,-1.99344 -3.06679,-2.02622 -6.53288,-0.57799 -4.70232,1.96476 -15.24753,1.97271 -20.79433,0.0157 -6.34004,-2.23689 -10.19524,-5.61081 -12.82378,-11.22285 -2.20753,-4.71317 -2.66132,-5.07996 -8.184942,-6.61566 -6.889,-1.91531 -12.46999,-6.40852 -15.0707,-12.13329 -2.40993,-5.30482 -2.39999,-14.734 0.0212,-20.06439 2.50298,-5.51059 9.05991,-10.896 15.40887,-12.65579 4.362812,-1.20927 5.562242,-2.07627 7.412872,-5.35833 2.97078,-5.26873 7.28478,-7.43009 14.83013,-7.43009 4.52324,0 7.39119,0.65874 11.25878,2.58605 5.77269,2.87665 8.65968,6.29844 10.67545,12.65304 1.23834,3.9038 1.41342,4.06185 2.08903,1.88574 3.36613,-10.84209 9.7518,-15.57877 20.93869,-15.53163 5.52197,0.0233 8.19538,0.60368 12.66136,2.74884 6.16563,2.96155 12.22195,8.93776 14.44191,14.25088 0.97114,2.32427 2.26152,3.5581 4.15283,3.97084 5.28994,1.15443 8.19841,2.67699 11.43287,5.98503 5.75217,5.883 7.23207,14.30306 4.2681,24.2838 -2.8052,9.44615 -10.30207,15.33132 -21.3556,16.76451 -4.41594,0.57257 -6.07865,1.38008 -9.1352,4.43663 -7.17496,7.17496 -20.11953,9.89582 -28.65127,6.0223 z m 2.685,-25.98251 c 1.925,-0.94806 5.05431,-3.80062 6.95403,-6.33903 2.72365,-3.63936 4.69249,-5.06686 9.31086,-6.7508 7.40782,-2.70103 10.06154,-6.36171 9.38829,-12.95069 -0.76348,-7.47214 -7.09102,-11.05863 -13.65318,-7.73873 -1.81782,0.91967 -2.5,2.07162 -2.5,4.22157 0,3.67891 2.66911,4.47743 5.17675,1.54872 4.80009,-5.60609 10.04581,1.60342 5.69075,7.82115 -0.89788,1.28189 -3.48538,3.17214 -5.75,4.20054 -10.75549,4.88425 -22.76502,-0.21751 -25.57957,-10.86642 -1.02964,-3.89568 -3.03793,-5.04431 -3.03793,-1.73754 0,1.98685 -4.78455,7.35493 -8.06946,9.05363 -3.58472,1.85373 -11.20984,1.88813 -14.73256,0.0665 -5.94291,-3.07324 -8.06449,-8.60242 -3.30079,-8.60242 2.96353,0 5.4603,-2.86433 4.01488,-4.60595 -2.0458,-2.46504 -7.51141,-1.71886 -9.92981,1.35564 -4.4289,5.63043 -0.0269,13.74616 9.10027,16.77772 3.54988,1.17908 5.00075,2.26605 5.70852,4.27673 0.52193,1.48272 2.2356,3.97514 3.80817,5.53871 7.25835,7.21682 18.43478,9.1464 27.40078,4.73067 z m 61.1535,-14.82352 c -0.50428,-0.9625 -1.24495,-3.27662 -1.64594,-5.1425 -1.14822,-5.34289 -7.83083,-11.8549 -14.0084,-13.65077 -4.55497,-1.32416 -5.45348,-2.02902 -7.02282,-5.5092 -3.76747,-8.35475 -16.59138,-16.91823 -25.36451,-16.93776 -3.70449,-0.008 -5.04778,-0.61778 -8.62189,-3.91228 -4.33828,-3.99888 -11.01317,-6.13693 -17.98091,-5.75951 -2.97649,0.16124 -2.99466,0.12898 -3.75346,-6.66063 -1.10695,-9.90493 -4.03072,-15.85786 -10.79332,-21.97569 -5.38653,-4.87295 -5.79196,-5.55883 -6.41578,-10.85367 l -0.6659,-5.65202 3.87059,-0.65393 c 13.27538,-2.24286 17.72999,-16.51221 7.63396,-24.45374 -3.52185,-2.77029 -7.63926,-2.63981 -11.07936,0.35111 -2.31224,2.01033 -2.6107,2.75788 -1.69677,4.25 1.5351,2.5063 3.82616,2.2672 4.21056,-0.43941 0.43499,-3.06281 4.11805,-2.96394 7.53443,0.20225 3.89766,3.61223 3.72402,9.46288 -0.38342,12.91907 -6.13298,5.16056 -15.35884,4.3673 -20.76069,-1.78507 -1.63659,-1.86397 -4.98267,-4.27685 -7.43573,-5.36196 -8.848032,-3.91391 -12.842982,-10.92247 -10.815512,-18.97427 1.52047,-6.03833 4.32947,-9.84619 9.033822,-12.24617 5.42758,-2.76894 11.06058,-3.43051 17.02551,-1.99954 l 5.15836,1.23747 2.87054,-3.48246 c 6.15707,-7.4696 11.93442,-7.19659 26.68449,1.26095 4.7766,2.73885 9.67389,4.97973 10.88288,4.97973 1.48385,0 3.33323,-1.57994 5.69115,-4.86199 4.22067,-5.87487 10.31273,-9.13801 17.06,-9.13801 6.14044,0 9.6562,1.88825 17.84611,9.58479 6.38942,6.00452 7.01325,6.34069 13,7.00553 6.67361,0.74111 7.6861,1.48369 17.2902,12.68098 4.22342,4.92402 9.75103,6.43422 18.2327,4.98137 l 6.544,-1.12094 6.59903,3.72577 c 6.89224,3.89131 11.12258,8.75598 11.12258,12.79038 0,2.776 -0.74765,2.9176 -3.86732,0.7325 -3.53947,-2.47914 -9.05051,-1.20489 -18.33826,4.24014 -6.8402,4.01014 -9.21328,4.87504 -14.25711,5.19621 -5.88574,0.37477 -6.25891,0.24484 -13.66322,-4.75734 -4.18672,-2.82845 -9.18979,-5.39864 -11.11794,-5.71154 -3.02453,-0.49081 -4.05503,-0.0726 -7.50777,3.04672 l -4.00206,3.61562 -6.80223,-3.18315 c -17.10143,-8.00272 -33.10347,-1.01897 -34.21961,14.93443 -0.3336,4.76829 -0.006,6.33029 1.93806,9.23853 2.5872,3.8705 11.60188,9 15.81677,9 2.89005,0 5.02069,1.62417 5.02069,3.82723 0,2.23481 -8.41618,0.9987 -15.81328,-2.32254 -20.60405,-9.25106 -20.02169,-32.5857 1.09108,-43.71885 6.64228,-3.5026 16.44278,-3.14053 24.24236,0.89559 5.55359,2.87387 6.22916,3.00581 8.7169,1.70235 1.4832,-0.77713 4.70981,-1.68889 7.17023,-2.02613 3.96539,-0.54351 5.70572,-0.0308 15.32242,4.5146 11.24761,5.31619 16.68628,6.49457 16.09361,3.48696 -0.19833,-1.00648 -2.09028,-2.08888 -4.89397,-2.79987 -2.51386,-0.6375 -6.78886,-2.48664 -9.5,-4.10921 -9.7177,-5.81587 -13.87625,-6.52348 -22.31702,-3.79741 -4.72633,1.52643 -5.25467,1.52844 -6.91448,0.0263 -4.99402,-4.51952 -16.70755,-5.90473 -26.16976,-3.09475 -10.74912,3.19215 -17.93443,9.84584 -20.62419,19.09827 -5.49416,18.89924 6.76512,34.69343 28.7089,36.98701 5.62727,0.58816 5.99696,0.80064 8.14108,4.67888 6.45254,11.67121 22.87101,14.30674 29.66728,4.76226 3.14907,-4.42246 2.75529,-9.36374 -0.99789,-12.52183 -1.69219,-1.42389 -3.61707,-2.58889 -4.27749,-2.58889 -2.43378,0 -5.64578,3.16133 -5.64578,5.5567 0,2.47471 1.37093,3.27018 2.49668,1.44868 0.33809,-0.54704 1.45839,-1.44615 2.48957,-1.99802 4.37557,-2.34174 6.79704,5.5702 3.10088,10.13186 -4.2805,5.28282 -17.194,1.64307 -22.78273,-6.42147 -3.9158,-5.6505 -4.45406,-14.8999 -1.20364,-20.68324 4.39051,-7.81186 13.1964,-10.30297 21.21954,-6.00283 3.17132,1.69973 4.39432,1.86403 7.48519,1.00558 5.40018,-1.49984 13.71732,-1.26348 17.96298,0.51047 8.49209,3.54822 12.56187,10.45909 12.50124,21.2283 -0.0347,6.17244 0.2498,7.43164 1.87605,8.30198 3.14886,1.68522 7.58398,8.62697 8.82984,13.82027 2.69221,11.22239 -3.73749,20.18602 -16.83973,23.47624 -4.04176,1.01496 -4.61952,1.54026 -5.88351,5.34939 -0.7709,2.32315 -2.73202,5.34336 -4.35805,6.71157 -5.27395,4.43773 -15.99892,6.13921 -17.74081,2.81452 z m 9.5314,-30.31133 c 4.01984,-1.51554 9.08941,-6.7248 10.39533,-10.68176 1.40482,-4.25667 0.48016,-9.43979 -2.10075,-11.77548 -1.95856,-1.77247 -1.97489,-1.72506 -1.41727,4.11272 1.03625,10.84847 -4.86438,16.37122 -17.56221,16.43755 -7.00996,0.0366 -7.33665,0.13255 -5,1.4683 2.96186,1.69315 11.70863,1.93778 15.6849,0.43867 z M 146.9847,239.24876 c 0.0437,-10.51378 -7.71126,-17.31218 -16.9196,-14.83263 -5.29826,1.42668 -5.20096,3.01653 0.18491,3.02127 7.77752,0.007 13.75,5.77514 13.75,13.27993 0,1.86065 0.30676,3.68976 0.68169,4.06469 1.1362,1.1362 2.28677,-1.62821 2.303,-5.53326 z m -68.421932,90.4349 c -6.10139,-9.27969 -5.11018,-20.8124 2.36958,-27.56991 6.76181,-6.10888 14.5616,-5.98666 18.81766,0.29489 2.724012,4.02038 2.891152,8.13481 0.421262,10.37003 -2.216992,2.00635 -6.171262,2.18412 -6.171262,0.27743 0,-0.75765 -0.675,-1.93775 -1.5,-2.62244 -1.19884,-0.99495 -1.81084,-0.98691 -3.04826,0.0401 -2.20877,1.83312 -1.39607,5.14455 1.6857,6.86854 2.1958,1.22837 3.32512,1.2694 6.74417,0.24503 9.627782,-2.88456 9.330982,-16.25919 -0.48571,-21.88717 -5.20885,-2.98628 -10.89283,-2.90726 -16.79988,0.23355 -2.58601,1.375 -5.122,2.5 -5.63551,2.5 -0.51352,0 -1.62863,-1.66328 -2.47803,-3.69617 -2.1623,-5.17512 -6.07047,-10.03941 -9.48451,-11.80488 -3.93848,-2.03667 -10.62888,-1.84963 -15.66729,0.438 -4.92939,2.23812 -6.33068,4.46804 -6.33068,10.07423 0,5.23508 4.21255,9.98882 8.85165,9.98882 3.51643,0 6.32277,-2.3819 5.45885,-4.63324 -0.47102,-1.22744 -1.48013,-1.43534 -4.56928,-0.94137 -4.87644,0.77972 -6.74122,-0.5684 -6.74122,-4.87357 0,-8.30128 12.36267,-11.3248 20.00648,-4.89296 4.30644,3.62362 6.27923,7.97219 6.27923,13.84109 0,5.67045 -1.76302,9.72824 -5.94643,13.68638 -3.68665,3.48812 -7.34311,4.81362 -13.27865,4.81362 -12.54609,0 -25.44947,-9.59822 -27.48418,-20.4442 -0.46139,-2.45939 -1.61483,-4.03443 -4.06217,-5.54697 -2.15783,-1.33362 -4.33019,-4.02868 -5.89268,-7.31058 -7.0054296,-14.71434 -2.64948,-29.28364 10.81388,-36.16906 5.09387,-2.6051 6.92299,-2.99401 14.15844,-3.01039 8.18394,-0.0185 8.36598,-0.0735 12.10747,-3.65862 7.55462,-7.23881 16.4466,-9.41261 26.52171,-6.4837 4.52332,1.31497 6.53418,2.67169 10.67502,7.20242 2.80603,3.07025 5.10188,5.99601 5.10188,6.50169 0,0.50567 2.67071,0.91941 5.9349,0.91941 3.264202,0 7.201702,0.47998 8.750002,1.06661 6.54292,2.47905 11.25548,10.05615 11.29314,18.15771 0.0201,4.31827 0.3013,4.86507 3.27196,6.36195 8.47529,4.2706 12.75,12.00603 12.75,23.07218 0,4.6962 -0.3112,5.48869 -2.75,7.00312 -1.5125,0.93921 -3.65,2.46906 -4.75,3.39966 -1.26547,1.07059 -4.49024,1.87956 -8.7805,2.20268 -7.9944,0.60211 -13.2084,3.51496 -16.1848,9.04179 -1.58409,2.94149 -2.658612,3.70174 -5.982792,4.23297 -2.22855,0.35615 -6.40759,1.95564 -9.28676,3.55443 -2.87917,1.5988 -5.46028,2.9069 -5.73581,2.9069 -0.27553,0 -1.61049,-1.6875 -2.96658,-3.75 z m 24.050692,-44.5 c -0.74725,-3.81524 -3.151402,-7.31559 -6.997572,-10.18821 -2.23599,-1.67001 -4.34837,-2.08258 -11.11679,-2.17119 -7.67228,-0.10045 -8.66903,-0.35369 -12.17767,-3.09399 -6.61327,-5.16507 -15.62758,-6.76615 -23.4222,-4.16013 -5.83959,1.95238 -5.08508,2.36261 4.40078,2.39273 10.04433,0.0319 12.79773,0.98366 19.26003,6.65764 3.18357,2.79521 4.19631,3.1248 9.00399,2.9303 6.87811,-0.27827 13.1702,2.40332 17.05075,7.26677 3.573962,4.4792 4.826742,4.59389 3.998682,0.36608 z"
         id="path3349"
         inkscape:connector-curvature="0" />
    </g>
  </g>
</svg>
